<svg width="316" height="72" viewBox="0 0 316 72" fill="none" xmlns="http://www.w3.org/2000/svg">
<path d="M61.6737 2.74399H80.4553L94.9588 27.9026L109.599 2.74399H128.384L103.107 46.1383V70.133H86.2894V46.1383L61.6737 2.74399ZM287.856 18.1619L257.899 70.1303H306.033L315.084 54.5148H285.887L316 2.74125H266.863L257.988 18.1593H287.856V18.1619ZM174.293 43.9237C171.283 51.3786 163.967 56.4661 155.432 56.4661C144.209 56.4661 135.157 47.5681 135.157 36.3449C135.157 25.1165 144.259 16.0184 155.479 16.0184C162.293 16.0184 168.314 19.368 172.01 24.5161L180.303 10.5411C173.9 4.42394 165.191 0.692583 155.553 0.692583C135.774 0.692583 119.754 16.5609 119.754 36.3475C119.754 56.129 135.655 72 155.432 72C175.209 72 191.205 55.9736 191.205 36.1949C191.205 33.5774 190.912 31.0362 190.386 28.5951H158.804L149.853 43.9263H174.292M263.715 70.1303L223.526 0L182.617 70.1303H225.959L234.855 54.6992L210.426 54.6792L223.276 32.5095L244.733 70.1289L263.715 70.1303ZM81.095 70.1303L40.9069 0L0 70.1303H43.3447L52.2327 54.6992L27.8092 54.6792L40.6594 32.5095L62.1132 70.1289L81.095 70.1303Z" fill="white"/>
</svg>
