<svg width="235" height="72" viewBox="0 0 235 72" fill="none" xmlns="http://www.w3.org/2000/svg">
<path fill-rule="evenodd" clip-rule="evenodd" d="M76.8599 71.4079H92.2339L95.1203 57.7855C140.788 80.8052 156.655 8.37467 119.177 7.35067C91.7984 7.46133 89.2084 22.0387 76.8599 71.4079ZM116.245 19.6267C122.568 19.6267 126.352 26.2147 124.668 34.2932C122.983 42.3693 116.449 48.9604 110.125 48.9604C103.8 48.9604 100.016 42.3693 101.703 34.2932C103.387 26.2147 109.92 19.6267 116.245 19.6267Z" fill="#F8B624"/>
<path fill-rule="evenodd" clip-rule="evenodd" d="M185.696 47.8583C185.067 51.4344 183.719 56.5292 183.091 60.1047C152.252 67.5807 137.699 60.2615 142.801 36.0469C146.372 19.332 156.044 7.59333 177.004 6.336C202.849 8.36667 200.481 39.5724 172.22 41.8432C167.295 42.1812 161.932 42.5208 157.004 42.8583C155.641 51.1912 169.829 52.9749 185.696 47.8583ZM159.757 31.3339C162.42 17.7507 187.519 15.04 178.888 27.06C174.352 31.6391 167.373 31.9599 159.757 31.3339Z" fill="#F8B624"/>
<path fill-rule="evenodd" clip-rule="evenodd" d="M234.669 7.34533H218.388L219.488 0.250671C214.581 0.250671 208.745 0.250671 203.84 0.250671C189.18 48.4011 186.019 66.038 227.543 61.5677L229.357 49.1249C209.239 55.0864 204.553 44.9781 214.993 20.3587H232.037L234.669 7.34533Z" fill="#F8B624"/>
<path fill-rule="evenodd" clip-rule="evenodd" d="M21.3896 7.78534C37.0781 7.78534 52.9973 7.39201 68.4536 7.78534C93.0396 8.41067 86.3459 54.1312 60.338 60.8287H7.29481L10.1927 49.2344H28.4593V41.1145H0.338562L4.25215 29.0893C13.4317 29.0893 22.612 29.0893 31.7927 29.0893C33.3255 25.516 34.7864 22.8453 36.3197 22.1613L36.2803 20.1053C30.2484 20.1053 24.2177 20.1053 18.186 20.1053C19.2541 15.9973 20.3213 11.892 21.3896 7.78534ZM61.3541 20.444C67.6781 20.444 70.8969 26.7187 68.5161 34.4115C66.1369 42.1031 59.0369 48.3776 52.714 48.3776C46.3891 48.3776 43.1713 42.1031 45.5521 34.4115C47.9303 26.7187 55.0297 20.444 61.3541 20.444Z" fill="#F8B624"/>
</svg>
