<svg width="298" height="299" viewBox="0 0 298 299" fill="none" xmlns="http://www.w3.org/2000/svg">
<path d="M297.473 149.5C297.473 232.067 230.881 299 148.737 299C66.592 299 0 232.068 0 149.5C0 66.934 66.592 0 148.737 0C230.882 0 297.473 66.934 297.473 149.5Z" fill="white"/>
<path d="M147.495 53.15C152.731 56.168 158.285 60.052 162.513 64.168L160.852 65.837C152.509 64.95 143.722 66.057 135.813 66.179C134.931 65.289 133.154 63.951 134.809 62.833L147.495 53.15ZM295.016 156.787C295.127 160.553 295.481 163.787 294.012 167.641C278.77 171.976 268.758 155.838 253.969 158.272L255.641 166.637C269.323 167.087 277.869 180.207 292.004 179.643C289.996 183.654 292.9 194.221 284.003 189.997C274.768 187.778 268.091 179.643 257.971 179.643C256.75 181.885 257.523 184.989 257.309 187.641C267.985 189.316 275.663 198.339 286.336 200.005C285.332 203.673 284.337 207.78 281.331 210.017C272.648 207.904 265.866 200.106 256.622 200.329L254.976 208.01C263.761 208.236 269.437 216.008 277.332 218.341C277.549 221.581 274.653 224.476 272.985 227.368C265.976 225.263 260.631 219.242 252.623 219.686C252.512 216.669 254.303 213.243 253.627 210.017C244.633 212.692 238.602 204.335 231.936 199.322C231.744 182.917 214.474 172.155 213.562 156.787C213.387 153.723 213.854 150.452 215.25 146.937C220.926 133.813 219.143 116.774 212.919 104.538C211.028 101.318 207.677 98.776 204.554 96.883C209.123 106.566 214.691 118.007 211.912 129.909C211.59 139.1 206.167 147.927 206.105 156.787C206.084 159.946 206.758 163.105 208.575 166.295C215.811 179.327 228.829 191.663 223.934 208.007C222.588 213.027 218.58 216.909 217.58 222.018C226.045 229.029 234.049 236.929 245.281 237.374C249.283 234.818 247.06 223.483 255.293 228.711L267.314 234.724C266.438 237.942 263.744 240.826 261.304 243.042C256.743 240.822 252.294 238.161 246.607 238.378C244.93 240.157 243.487 242.154 243.615 244.707C247.617 245.366 251.288 247.055 254.631 249.395C253.079 252.738 250.054 254.833 247.273 257.393L237.948 254.059C236.391 256.287 233.157 258.628 234.292 261.073C236.396 261.974 238.73 263.192 240.279 264.753C236.163 269.202 230.946 272.064 225.926 275.084C221.602 260.951 207.355 251.042 208.578 234.698L207.916 234.037C204.567 237.802 205.686 243.823 205.902 248.709C209.91 258.946 219.47 266.853 220.92 278.079C219.246 280.968 215.472 281.544 212.577 282.767C212.913 262.527 182.212 247.176 201.9 226.703C208.466 216.678 219.467 207.111 215.569 193.309C211.567 179.983 197.412 171.726 197.537 156.787L197.559 155.622C200.783 140.043 210.577 123.466 202.565 106.893C200.332 100.227 195.343 92.652 188.557 89.866C198.674 101.446 202.685 120.34 196.897 135.922C193.98 142.12 189.964 149.504 189.561 156.79H189.537C189.322 160.595 190.099 164.379 192.554 167.967C200.236 180.431 213.578 194.122 205.903 210.365C197.227 223.375 182.098 236.609 190.547 253.745C196.665 263.979 206.129 274.191 203.576 286.772L193.564 290.106C200.239 266.64 167.529 252.852 181.222 229.378C189.676 216.808 204.796 205.014 196.237 188.331C191.12 177.994 180.547 171.876 180.881 158.958L181.245 156.789C184.69 138.468 198.617 121.126 188.879 101.548C186.32 95.767 181.206 89.873 175.53 86.533L175.187 86.876C186.54 97.889 189.994 116.009 183.873 130.575C181.017 139.121 174.749 147.634 173.475 156.792C172.869 161.11 173.38 165.585 175.875 170.299C183.105 181.748 195.784 193.893 187.872 208.695C179.54 220.921 165.63 232.817 171.186 248.716C177.306 262.626 190.085 275.877 183.185 293.125L172.854 295.458C181.083 278.649 168.744 261.97 161.516 247.392C152.723 226.477 180.408 216.462 180.852 197.34C180.747 184.998 167.626 177.99 164.853 166.644C159.174 161.853 153.288 168.549 146.499 167.306C141.487 168.313 133.789 160.407 130.797 168.977C127.234 181.541 111.002 190.778 118.136 205.68C124.924 218.923 141.26 228.607 135.803 245.745C130.917 261.753 114.777 276.995 124.787 295.458C120.675 294.126 112.996 296.676 113.107 290.107C106.769 267.748 133.797 254.722 125.449 232.375C121.564 218.687 103.863 211.125 107.76 194.662C110.641 181.11 125.848 171.636 123.715 156.791C123.542 155.548 123.236 154.276 122.799 152.95C117.123 136.931 105.543 120.908 112.445 102.212C114.34 96.872 118.125 92.312 121.451 87.539C110.437 93.433 104.881 105.896 105.109 118.575C104.629 132.363 114.814 144.174 116.263 156.791C116.833 161.883 115.999 167.097 112.445 172.628C105.22 182.432 95.771 192.769 100.103 205.678C104.222 218.699 120.462 226.587 119.461 241.722C119.351 259.625 98.548 270.772 104.444 290.794L94.09 287.435C89.979 269.643 108.887 260.54 109.104 244.078C111.78 225.147 87.635 218.123 89.084 199.669C88.98 185.648 101.322 176.768 106.773 164.974C107.708 162.104 108.019 159.392 107.894 156.792C107.226 143.752 95.476 133.557 97.426 118.896C98.082 108.106 101.753 98.648 108.764 90.533C99.091 94.419 95.095 105.554 92.423 114.9C87.786 129.886 98.855 143.366 99.965 156.793C100.457 162.722 99.008 168.617 93.429 174.644C85.415 184.088 77.288 196.004 83.074 208.697C89.201 222.702 108.45 233.603 100.101 251.071C95.546 262.086 84.639 270.424 85.087 283.435C82.197 282.211 79.199 280.991 76.743 278.772C76.743 262.2 100.317 251.849 89.085 234.384C88.09 237.83 87.876 242.513 87.097 246.406C83.199 256.534 74.859 264.641 71.738 275.111C66.519 273.097 61.062 268.865 56.721 264.416L62.734 260.736C62.066 258.507 60.289 256.618 58.735 254.727C54.83 254.178 52.266 256.74 49.047 257.744C46.266 255.292 43.582 253.066 41.365 250.063C43.361 244.378 58.957 249.079 51.056 239.732C45.722 236.397 40.368 241.161 35.697 243.385L29.365 235.387C34.816 232.053 40.253 227.37 47.033 228.713C48.704 231.722 48.82 236.147 52.039 237.718C63.499 237.495 71.619 228.827 80.404 222.039C74.281 212.928 69.297 200.35 74.736 189.332C79.094 178.291 90.449 168.992 90.964 156.786C91.08 154.008 90.647 151.085 89.432 147.939C83.428 132.474 81.309 111.573 92.769 97.885C86.538 99.559 82.864 107.325 80.747 113.222C73.858 128.323 82.571 142.313 82.872 156.785C82.913 159.388 82.702 161.997 82.071 164.625C76.173 176.527 66.617 186.97 65.065 200.666C58.277 204.996 52.704 212.568 43.032 210.013C42.692 212.569 43.471 216.465 44.358 219.36C36.688 219.038 31.458 224.691 25 227.361C21.56 226.257 20.665 221.81 19.333 218.698C26.892 216.145 32.345 208.567 41.024 208.687C42.03 205.892 40.46 203.331 40.017 200.664C29.221 195.872 12.108 224.352 10.669 199.66C21.457 198.992 28.351 188.978 39.035 187.98L39.354 179.982C27.229 178.757 19.429 191.222 7.309 189.993L4.636 179.32C18.656 180.196 27.009 167.632 40.361 166.956C42.135 164.623 42.349 161.174 42.691 157.951C28.117 156.052 18.116 172.203 2.648 167.298C2.648 167.298 2.115 160.576 1.826 156.786H1.847C1.742 155.304 1.642 154.271 1.642 154.271C15.435 159.623 27.554 149.716 39.354 144.602C42.355 143.704 47.035 145.261 48.381 141.927C48.264 139.368 52.931 136.376 49.046 134.59C31.795 132.249 20.335 153.056 2.646 143.595L1.319 140.92C4.999 90.645 33.353 42.039 80.404 18.12C99.46 7.23 123.134 1.679 147.009 1.482C175.822 1.243 204.936 8.801 226.594 24.132C247.626 37.033 267.744 58.294 278.662 79.877C289.104 98.787 293.91 120.006 295.345 142.596C277.097 156.384 264.855 129.606 246.273 135.599C247.274 138.497 247.828 141.495 249.952 143.942C266.421 143.826 277.762 161.07 295.001 154.274L295.016 156.787ZM85.404 94.869C73.833 87.302 59.163 94.427 48.379 98.548C47.378 88.42 43.265 79.193 34.689 72.519C33.857 72.105 32.707 71.234 31.671 71.17C31.051 71.131 30.461 71.381 30.003 72.174C33.89 96.087 18.345 112.773 7.329 130.913C10.997 133.911 16.89 133.463 21.339 132.582C33.017 127.912 44.141 119.784 58.046 122.57C62.158 115.562 69.067 108.774 74.732 103.212C78.193 100.217 82.948 98.315 85.404 94.869ZM120.786 109.887C120.564 111.327 120.897 113.894 123.117 112.902C126.571 108.119 132.686 111.903 136.466 112.24V110.894C134.392 107.637 130.125 106.001 125.792 106.164C124.792 106.199 123.776 106.345 122.798 106.572C121.348 106.894 120.339 108.221 120.786 109.887ZM175.182 95.556C172.076 88.657 164.956 85.865 158.495 84.197C155.328 83.807 152.041 83.543 148.781 83.512C148.17 83.506 147.56 83.498 146.952 83.512C137.833 83.696 129.12 86.037 123.797 93.543C123.033 95.662 119.674 98.638 122.793 100.537C129.802 100.089 137.8 99.21 142.472 105.225C142.472 110.57 145.923 117.681 140.141 120.24C135.35 115.804 129.676 122.128 124.463 118.568C122.012 117.12 120.461 118.81 119.457 120.923C118.008 134.714 125.229 149.934 138.131 157.607C143.36 159.493 150.389 161.287 155.846 158.611C168.972 152.499 174.409 138.491 176.853 125.585C176.525 123.129 176.642 118.343 173.196 118.227C169.305 120.688 163.63 119.234 159.506 118.227C157.068 119.014 156.956 122.581 154.181 123.257L152.49 121.908C151.042 115.799 150.149 107.119 155.828 102.892C162.174 100.333 169.627 99.215 176.19 101.223C177.415 99.111 175.524 97.448 175.182 95.556ZM168.485 106.525C168.044 106.536 167.615 106.558 167.181 106.572C164.85 108.127 158.057 107.009 160.509 112.24C164.739 108.894 170.635 111.239 174.862 112.902C176.425 112.126 176.086 110.568 176.189 109.225C174.832 106.7 171.589 106.463 168.485 106.525ZM216.919 59.491C208.685 59.054 201.79 63.728 194.224 65.843C193.565 59.405 198.456 52.606 199.572 46.143C187.339 46.93 177.65 54.293 167.53 60.175C165.188 54.516 162.839 48.828 160.513 43.148L173.862 30.463L174.204 28.792L156.173 27.788C153.067 22.346 151.843 15.791 148.172 10.785C145.168 16.458 143.15 22.462 140.149 28.13L122.139 29.137V30.463L135.808 42.805C134.137 49.149 132.584 56.042 128.472 60.837C120.463 56.04 112.568 50.819 103.787 47.488C101.674 46.806 98.662 45.697 96.771 47.146C99.548 53.266 103.437 59.849 102.783 66.529C99.11 65.853 96.223 63.498 92.772 62.508C88.645 61.382 83.748 59.182 79.744 60.52C86.42 69.859 91.869 79.633 93.754 90.872C115.901 80.183 141.729 74.304 168.539 78.872C181.106 80.872 192.662 85.991 203.899 90.208C204.338 78.423 211.791 68.953 216.919 59.491ZM254.951 123.575C266.289 126.576 277.663 138.929 289.669 130.914C279.213 113.563 263.65 97.54 267.978 74.85C268.431 73.301 267.43 71.733 265.99 71.513C259.207 74.285 253.954 80.968 251.27 87.537C250.166 91.422 249.512 95.552 247.957 99.214C239.831 94.985 231.16 90.888 221.26 91.878C217.69 92.323 212.572 92.557 211.913 96.222C223.148 102.226 232.387 112.246 239.272 122.916C244.066 122.134 249.945 122.802 254.951 123.575ZM136.145 139.256L136.465 141.267C140.812 144.163 142.149 149.071 148.167 148.625C153.504 148.942 157.508 143.942 160.167 139.94C152.945 138.943 144.157 140.486 136.145 139.256ZM142.155 130.251C142.372 131.142 141.604 132.477 142.817 132.927C146.377 132.154 152.826 134.821 154.814 130.594C153.426 129.039 151.16 128.333 148.782 128.333C146.405 128.333 143.938 129.026 142.155 130.251Z" fill="black"/>
<path d="M136.153 126.391H160.545V136.412H136.153V126.391Z" fill="white"/>
<path d="M140.659 131.749C143.811 132.495 144.591 133.613 147.082 133.925C149.73 133.878 149.348 133.34 153.967 131.746C154.27 131.639 154.687 130.97 154.17 130.457C151.302 127.61 149.32 129.644 147.522 129.698C145.137 129.724 142.9 127.656 140.57 130.344C140.173 130.89 139.966 131.426 140.659 131.749Z" fill="black"/>
</svg>
